<svg xmlns="http://www.w3.org/2000/svg" width="72" height="48" viewBox="0 0 72 48"><defs><style>.a{fill:#fff;}.b,.c,.d{fill:none;}.c{stroke:#615ea3;}.c,.d{stroke-linecap:round;stroke-linejoin:round;stroke-width:1.5px;}.d{stroke:#81c5bb;}.e{fill:#3f3d56;font-size:10px;font-family:Poppins-Light, Poppins;font-weight:300;}</style></defs><g transform="translate(-440 -414)"><rect class="a" width="72" height="48" rx="4" transform="translate(440 414)"/><g transform="translate(464 418)"><path class="b" d="M0,0H24V24H0Z"/><rect class="c" width="18" height="14" rx="3" transform="translate(3 5)"/><line class="c" x2="18" transform="translate(3 12)"/><path class="d" d="M6.846,6.693A1.846,1.846,0,1,1,6.846,3C8.3,2.974,9.623,4.44,10.17,6.693,10.717,4.44,12.035,2.974,13.493,3a1.846,1.846,0,0,1,0,3.693" transform="translate(1 5.308)"/><line class="d" x2="6.5" transform="translate(8 12)"/><line class="d" x2="1.09" y2="2.044" transform="translate(11.8 12.456)"/><line class="d" x1="1.09" y2="2.044" transform="translate(9.8 12.456)"/></g><text class="e" transform="translate(476 454)"><tspan x="-22.245" y="0">Gift Card</tspan></text></g></svg>