<svg xmlns="http://www.w3.org/2000/svg" width="72" height="48" viewBox="0 0 72 48"><defs><style>.a{fill:#fff;}.b{fill:#2394bc;}.c{fill:#efc75e;}</style></defs><rect class="a" width="72" height="48" rx="4"/><g transform="translate(13.491 16.731)"><g transform="translate(4.206 0)"><path class="b" d="M41.457,100.23,39.2,114.29h3.611l2.258-14.06Zm10.893,5.727c-1.262-.623-2.036-1.044-2.036-1.681.015-.58.654-1.173,2.081-1.173a6.284,6.284,0,0,1,2.69.521l.328.146.491-2.942a9.115,9.115,0,0,0-3.241-.58c-3.566,0-6.078,1.854-6.093,4.506-.029,1.957,1.8,3.043,3.165,3.694,1.4.668,1.873,1.1,1.873,1.7-.015.912-1.13,1.332-2.169,1.332a7.344,7.344,0,0,1-3.389-.725l-.476-.217-.505,3.057a11.278,11.278,0,0,0,4.028.726c3.79,0,6.256-1.826,6.287-4.652C55.4,108.115,54.432,106.928,52.35,105.957Zm12.812-5.684H62.368A1.79,1.79,0,0,0,60.48,101.4L55.116,114.29h3.79l1.044-2.79h4.24l.542,2.8h3.343ZM61,108.685c.073.007,1.455-4.554,1.455-4.554l1.1,4.554ZM36.18,100.23l-3.538,9.552-.385-1.884a10.5,10.5,0,0,0-4.994-5.709l3.24,12.086h3.821L40,100.232H36.18Z" transform="translate(-27.262 -100.23)"/></g><path class="c" d="M8.011,102.059a2.36,2.36,0,0,0-2.349-1.811H.058l-.058.26c4.371,1.078,8.04,4.394,9.23,7.512Z" transform="translate(0 -100.245)"/></g></svg>