<svg xmlns="http://www.w3.org/2000/svg" width="40" height="40" viewBox="0 0 40 40">
  <g id="Group_307" data-name="Group 307" transform="translate(-84 -252)">
    <circle id="Ellipse_54" data-name="Ellipse 54" cx="16" cy="16" r="16" transform="translate(88 256)" fill="#111c4e"/>
    <g id="Ellipse_57" data-name="Ellipse 57" transform="translate(84 252)" fill="none" stroke="#111c4e" stroke-width="1">
      <circle cx="20" cy="20" r="20" stroke="none"/>
      <circle cx="20" cy="20" r="19.5" fill="none"/>
    </g>
    <g id="Group_702" data-name="Group 702" transform="translate(92 260)">
      <path id="Path_737" data-name="Path 737" d="M0,0H24V24H0Z" fill="none"/>
      <rect id="Rectangle_460" data-name="Rectangle 460" width="14" height="10" rx="2" transform="translate(7 9)" fill="none" stroke="#fff" stroke-linecap="round" stroke-linejoin="round" stroke-width="1.5"/>
      <circle id="Ellipse_188" data-name="Ellipse 188" cx="2" cy="2" r="2" transform="translate(12 12)" fill="none" stroke="#fff" stroke-linecap="round" stroke-linejoin="round" stroke-width="1.5"/>
      <path id="Path_738" data-name="Path 738" d="M17,9V7a2,2,0,0,0-2-2H5A2,2,0,0,0,3,7v6a2,2,0,0,0,2,2H7" fill="none" stroke="#fff" stroke-linecap="round" stroke-linejoin="round" stroke-width="1.5"/>
    </g>
  </g>
</svg>
