<svg xmlns="http://www.w3.org/2000/svg" width="64" height="84" viewBox="0 0 64 84">
  <g id="Group_33768" data-name="Group 33768" transform="translate(-59.733)" opacity="0.1">
    <g id="Group_33657" data-name="Group 33657" transform="translate(59.733 0)">
      <g id="Page-1_6_" transform="translate(0 0)">
        <g id="_x30_07---Points-Wallet">
          <path id="Shape_48_" d="M257.4,5.6a1.4,1.4,0,0,0,1.4-1.4V1.4a1.4,1.4,0,1,0-2.8,0V4.2A1.4,1.4,0,0,0,257.4,5.6Z" transform="translate(-224.009 0)" fill="#fff"/>
          <path id="Shape_47_" d="M308.6,14.134a1.4,1.4,0,0,0,1.4-1.4v-2.8a1.4,1.4,0,1,0-2.8,0v2.8A1.4,1.4,0,0,0,308.6,14.134Z" transform="translate(-266.864 -7.134)" fill="#fff"/>
          <path id="Shape_46_" d="M206.2,14.134a1.4,1.4,0,0,0,1.4-1.4v-2.8a1.4,1.4,0,1,0-2.8,0v2.8A1.4,1.4,0,0,0,206.2,14.134Z" transform="translate(-181.155 -7.134)" fill="#fff"/>
          <path id="Shape_45_" d="M62.516,111.152v8.658a6.987,6.987,0,0,0,6.957,7h47.3a6.987,6.987,0,0,0,6.957-7V72.21a6.987,6.987,0,0,0-6.957-7h-6.069a18.043,18.043,0,0,0-35.168,0H69.472a6.987,6.987,0,0,0-6.956,7V92.068a4.2,4.2,0,0,0-2.783,3.942v11.2A4.2,4.2,0,0,0,62.516,111.152ZM120.95,72.21a4.2,4.2,0,0,1-1.22,2.972,4.152,4.152,0,0,1-2.954,1.228H109.83a18.374,18.374,0,0,0,1.382-7c0-.465-.022-.932-.058-1.4h5.624a4.187,4.187,0,0,1,4.174,4.2ZM78.037,66.841a15.319,15.319,0,1,1,28.7,9.569h-5.32l-.666-4.06a.3.3,0,0,1,.06-.231l3.271-3.333a3.077,3.077,0,0,0,.715-3.125,2.938,2.938,0,0,0-2.336-2.015l-4.533-.682a.17.17,0,0,1-.12-.1l-2.056-4.348a2.875,2.875,0,0,0-5.244,0l-2.059,4.36a.19.19,0,0,1-.089.094l-4.57.687a2.934,2.934,0,0,0-2.328,2.013,3.08,3.08,0,0,0,.715,3.126l3.258,3.318a.309.309,0,0,1,.074.244l-.668,4.06h-5.32a15.3,15.3,0,0,1-1.479-9.569v0Zm9.383,3.307-3.27-3.331a.27.27,0,0,1-.054-.28c.017-.052.05-.116.1-.125l4.591-.69a2.954,2.954,0,0,0,2.162-1.66l2.059-4.354.111-.1,2.165,4.444a2.962,2.962,0,0,0,2.194,1.67l4.554.685c.063.01.1.074.113.126a.267.267,0,0,1-.054.28L98.813,70.16A3.111,3.111,0,0,0,98,72.8l.594,3.609H87.657l.594-3.611a3.126,3.126,0,0,0-.831-2.652ZM69.472,68.01H75.1c-.036.468-.058.935-.058,1.4a18.347,18.347,0,0,0,1.383,7H69.472A6.857,6.857,0,0,0,65.3,77.846V72.21A4.187,4.187,0,0,1,69.472,68.01Zm0,11.2h47.3a6.9,6.9,0,0,0,4.174-1.436V119.81a4.187,4.187,0,0,1-4.174,4.2h-47.3a4.187,4.187,0,0,1-4.174-4.2v-8.4H77.82a9.8,9.8,0,0,0,0-19.6H65.3v-8.4a4.187,4.187,0,0,1,4.174-4.2Zm-6.957,16.8a1.4,1.4,0,0,1,1.391-1.4H77.82a7,7,0,0,1,0,14H63.907a1.4,1.4,0,0,1-1.391-1.4Z" transform="translate(-59.733 -42.81)" fill="#fff"/>
          <path id="Shape_44_" d="M149.267,341.2a4.2,4.2,0,1,0-4.2-4.2A4.2,4.2,0,0,0,149.267,341.2Zm0-5.6a1.4,1.4,0,1,1-1.4,1.4A1.4,1.4,0,0,1,149.267,335.6Z" transform="translate(-131.167 -278.2)" fill="#fff"/>
          <path id="Shape_43_" d="M376.867,241.734h1.4a1.4,1.4,0,0,0,0-2.8h-1.4a1.4,1.4,0,0,0,0,2.8Z" transform="translate(-324.067 -199.734)" fill="#fff"/>
          <path id="Shape_42_" d="M334.2,241.734h1.4a1.4,1.4,0,0,0,0-2.8h-1.4a1.4,1.4,0,1,0,0,2.8Z" transform="translate(-288.298 -199.734)" fill="#fff"/>
          <path id="Shape_41_" d="M291.534,241.734h1.4a1.4,1.4,0,0,0,0-2.8h-1.4a1.4,1.4,0,0,0,0,2.8Z" transform="translate(-252.585 -199.734)" fill="#fff"/>
          <path id="Shape_40_" d="M248.867,241.734h1.4a1.4,1.4,0,0,0,0-2.8h-1.4a1.4,1.4,0,1,0,0,2.8Z" transform="translate(-216.872 -199.734)" fill="#fff"/>
          <path id="Shape_39_" d="M206.2,241.734h1.4a1.4,1.4,0,0,0,0-2.8h-1.4a1.4,1.4,0,0,0,0,2.8Z" transform="translate(-181.158 -199.734)" fill="#fff"/>
          <path id="Shape_38_" d="M163.534,241.734h1.4a1.4,1.4,0,1,0,0-2.8h-1.4a1.4,1.4,0,1,0,0,2.8Z" transform="translate(-145.445 -199.734)" fill="#fff"/>
          <path id="Shape_37_" d="M120.867,241.734h1.4a1.4,1.4,0,0,0,0-2.8h-1.4a1.4,1.4,0,0,0,0,2.8Z" transform="translate(-109.732 -199.734)" fill="#fff"/>
          <path id="Shape_36_" d="M376.867,463.6h1.4a1.4,1.4,0,1,0,0-2.8h-1.4a1.4,1.4,0,0,0,0,2.8Z" transform="translate(-324.067 -385.201)" fill="#fff"/>
          <path id="Shape_35_" d="M334.2,463.6h1.4a1.4,1.4,0,1,0,0-2.8h-1.4a1.4,1.4,0,1,0,0,2.8Z" transform="translate(-288.298 -385.201)" fill="#fff"/>
          <path id="Shape_34_" d="M291.534,463.6h1.4a1.4,1.4,0,1,0,0-2.8h-1.4a1.4,1.4,0,0,0,0,2.8Z" transform="translate(-252.585 -385.201)" fill="#fff"/>
          <path id="Shape_33_" d="M248.867,463.6h1.4a1.4,1.4,0,0,0,0-2.8h-1.4a1.4,1.4,0,1,0,0,2.8Z" transform="translate(-216.872 -385.201)" fill="#fff"/>
          <path id="Shape_32_" d="M207.6,460.8h-1.4a1.4,1.4,0,1,0,0,2.8h1.4a1.4,1.4,0,1,0,0-2.8Z" transform="translate(-181.159 -385.2)" fill="#fff"/>
          <path id="Shape_31_" d="M164.934,460.8h-1.4a1.4,1.4,0,1,0,0,2.8h1.4a1.4,1.4,0,1,0,0-2.8Z" transform="translate(-145.445 -385.2)" fill="#fff"/>
          <path id="Shape_30_" d="M122.267,460.8h-1.4a1.4,1.4,0,1,0,0,2.8h1.4a1.4,1.4,0,1,0,0-2.8Z" transform="translate(-109.732 -385.2)" fill="#fff"/>
        </g>
      </g>
    </g>
  </g>
</svg>
