<svg xmlns="http://www.w3.org/2000/svg" width="13" height="13" viewBox="0 0 13 13">
  <path id="clock" d="M7.176-74.864h3.16a.494.494,0,0,0,.364-.145.494.494,0,0,0,.145-.365v-4.1a.487.487,0,0,0-.145-.358.494.494,0,0,0-.364-.145.479.479,0,0,0-.352.145.487.487,0,0,0-.145.358v3.608H7.176a.486.486,0,0,0-.358.145.479.479,0,0,0-.145.352.494.494,0,0,0,.145.365.486.486,0,0,0,.358.145Zm3.167,5.708a6.252,6.252,0,0,0,2.513-.509,6.649,6.649,0,0,0,2.07-1.4,6.613,6.613,0,0,0,1.407-2.074,6.256,6.256,0,0,0,.512-2.514,6.212,6.212,0,0,0-.512-2.508,6.71,6.71,0,0,0-1.407-2.074,6.586,6.586,0,0,0-2.073-1.408,6.274,6.274,0,0,0-2.516-.509,6.236,6.236,0,0,0-2.507.509,6.6,6.6,0,0,0-2.07,1.408,6.664,6.664,0,0,0-1.4,2.074,6.245,6.245,0,0,0-.509,2.508,6.289,6.289,0,0,0,.509,2.514,6.543,6.543,0,0,0,1.407,2.074,6.688,6.688,0,0,0,2.073,1.4A6.237,6.237,0,0,0,10.343-69.156Zm0-1.295a5.1,5.1,0,0,1-2.023-.4,5.209,5.209,0,0,1-1.656-1.116,5.159,5.159,0,0,1-1.112-1.66,5.163,5.163,0,0,1-.4-2.027,5.147,5.147,0,0,1,.4-2.021,5.185,5.185,0,0,1,1.109-1.66,5.172,5.172,0,0,1,1.652-1.116,5.1,5.1,0,0,1,2.023-.4,5.092,5.092,0,0,1,2.026.4,5.256,5.256,0,0,1,1.656,1.116,5.219,5.219,0,0,1,1.122,1.66,5.078,5.078,0,0,1,.405,2.021,5.128,5.128,0,0,1-.4,2.027,5.2,5.2,0,0,1-1.115,1.66,5.2,5.2,0,0,1-1.659,1.116,5.121,5.121,0,0,1-2.026.4Z" transform="translate(-3.846 82.156)" fill="#828894"/>
</svg>
