<svg xmlns="http://www.w3.org/2000/svg" width="56" height="56" viewBox="0 0 56 56">
  <g id="Group_33773" data-name="Group 33773" transform="translate(-12 -12)">
    <circle id="Ellipse_174" data-name="Ellipse 174" cx="28" cy="28" r="28" transform="translate(12 12)" fill="#111c4e" opacity="0.1"/>
    <g id="Group_571" data-name="Group 571" transform="translate(24 24)">
      <path id="Path_685" data-name="Path 685" d="M0,0H32V32H0Z" fill="none"/>
      <rect id="Rectangle_416" data-name="Rectangle 416" width="26.316" height="22.316" rx="3" transform="translate(2.842 4.842)" fill="none" stroke="#615ea3" stroke-linecap="round" stroke-linejoin="round" stroke-width="2"/>
      <line id="Line_53" data-name="Line 53" x2="26.316" transform="translate(2.842 14.98)" fill="none" stroke="#615ea3" stroke-linecap="round" stroke-linejoin="round" stroke-width="2"/>
      <g id="Group_572" data-name="Group 572" transform="translate(-28 -27)">
        <g id="Group_572-2" data-name="Group 572">
          <path id="Path_686" data-name="Path 686" d="M7.5,8a2.5,2.5,0,0,1,0-5c1.974-.034,3.76,1.949,4.5,5,.74-3.051,2.526-5.034,4.5-5a2.5,2.5,0,0,1,0,5" transform="translate(30 34)" fill="none" stroke="#81c5bb" stroke-linecap="round" stroke-linejoin="round" stroke-width="2"/>
          <line id="Line_54" data-name="Line 54" x2="9" transform="translate(37.5 42)" fill="none" stroke="#81c5bb" stroke-width="2"/>
        </g>
        <path id="Path_451" data-name="Path 451" d="M0,0,3,4" transform="translate(42 42)" fill="none" stroke="#81c5bb" stroke-linecap="round" stroke-width="2"/>
        <path id="Path_687" data-name="Path 687" d="M3,0,0,4" transform="translate(39 42)" fill="none" stroke="#81c5bb" stroke-linecap="round" stroke-width="2"/>
      </g>
    </g>
  </g>
</svg>
