<svg xmlns="http://www.w3.org/2000/svg" width="22.133" height="22.133" viewBox="0 0 22.133 22.133">
  <g id="Icon_ionic-ios-add-circle-outline" data-name="Icon ionic-ios-add-circle-outline" transform="translate(-3.375 -3.375)">
    <path id="Path_20838" data-name="Path 20838" d="M20.993,15.327H17.029V11.363a.851.851,0,0,0-1.7,0v3.964H11.363a.815.815,0,0,0-.851.851.824.824,0,0,0,.851.851h3.964v3.964a.825.825,0,0,0,.851.851.847.847,0,0,0,.851-.851V17.029h3.964a.851.851,0,1,0,0-1.7Z" transform="translate(-1.736 -1.736)" fill="#f29d85"/>
    <path id="Path_20839" data-name="Path 20839" d="M14.442,4.865a9.573,9.573,0,1,1-6.773,2.8,9.514,9.514,0,0,1,6.773-2.8m0-1.49A11.067,11.067,0,1,0,25.508,14.442,11.065,11.065,0,0,0,14.442,3.375Z" fill="#f29d85"/>
  </g>
</svg>
