<svg id="Group_19925" data-name="Group 19925" xmlns="http://www.w3.org/2000/svg" width="18" height="18" viewBox="0 0 18 18">
  <g id="Light-S">
    <path id="Path_3543" data-name="Path 3543" d="M16.092-57.7A7.292,7.292,0,0,0,20.4-59.116l4.7,4.669a1.045,1.045,0,0,0,.708.278.955.955,0,0,0,.977-.98.908.908,0,0,0-.281-.69l-4.677-4.657a7.089,7.089,0,0,0,1.551-4.44,7.278,7.278,0,0,0-7.29-7.234,7.288,7.288,0,0,0-7.3,7.234A7.288,7.288,0,0,0,16.092-57.7Zm0-1.391a5.909,5.909,0,0,1-5.91-5.843,5.909,5.909,0,0,1,5.91-5.843,5.9,5.9,0,0,1,5.9,5.843A5.9,5.9,0,0,1,16.092-59.091Z" transform="translate(-8.789 72.168)" fill="#828894"/>
  </g>
</svg>
