<svg id="_24px_14_" data-name="24px (14)" xmlns="http://www.w3.org/2000/svg" width="17.763" height="17" viewBox="0 0 17.763 17">
  <g id="Bounding_Boxes">
    <path id="Path_2265" data-name="Path 2265" d="M17.763,0H0V17H17.763Z" fill="none"/>
    <path id="Path_2266" data-name="Path 2266" d="M17.763,0H0V17H17.763Z" fill="none"/>
  </g>
  <g id="Rounded" transform="translate(2.548 2.511)">
    <path id="Path_2267" data-name="Path 2267" d="M9.776,13.71,6.7,15.568a.738.738,0,0,1-1.1-.8l.814-3.493L3.7,8.922a.739.739,0,0,1,.422-1.3l3.575-.3,1.4-3.3a.74.74,0,0,1,1.362,0l1.4,3.293,3.575.3a.739.739,0,0,1,.422,1.3l-2.716,2.354.814,3.493a.738.738,0,0,1-1.1.8Z" transform="translate(-3.443 -3.573)" fill="#fa0"/>
  </g>
</svg>
