<svg id="Group_20478" data-name="Group 20478" xmlns="http://www.w3.org/2000/svg" width="17.06" height="15.748" viewBox="0 0 17.06 15.748">
  <path id="Path_5749" data-name="Path 5749" d="M11.371,19.624l-.8-.84a3.03,3.03,0,0,1,.019-4.16l.781-.8a8.279,8.279,0,0,0-.93-.059C7.957,13.765,3,15.073,3,17.671v1.953h8.371Zm-.93-7.812a3.815,3.815,0,0,0,3.72-3.906A3.815,3.815,0,0,0,10.441,4,3.815,3.815,0,0,0,6.72,7.906a3.815,3.815,0,0,0,3.72,3.906" transform="translate(-3 -4)" fill="#fff"/>
  <path id="Path_5750" data-name="Path 5750" d="M15.916,19.3a.937.937,0,0,1-1.321,0L12.67,17.356a.921.921,0,0,1,0-1.293l.009-.009a.915.915,0,0,1,1.3,0l1.274,1.274,4.12-4.148a.926.926,0,0,1,1.311,0l.009.009a.921.921,0,0,1,0,1.293Z" transform="translate(-3.901 -3.823)" fill="#fff"/>
</svg>
