<svg xmlns="http://www.w3.org/2000/svg" width="48" height="48" viewBox="0 0 48 48">
  <g id="Group_33488" data-name="Group 33488" transform="translate(-1210.48 -280.5)">
    <rect id="Rectangle_4594" data-name="Rectangle 4594" width="48" height="48" rx="12" transform="translate(1210.48 280.5)" fill="#fff"/>
    <g id="Light-S" transform="translate(1226.48 296.5)">
      <path id="Path_13002" data-name="Path 13002" d="M10-50.595a.8.8,0,0,0,0,1.131.825.825,0,0,0,1.131,0l6.631-6.644,6.644,6.644a.812.812,0,0,0,1.131,0,.825.825,0,0,0,0-1.131l-6.644-6.644,6.644-6.631a.812.812,0,0,0,0-1.131.8.8,0,0,0-1.131,0L17.762-58.37,11.131-65A.8.8,0,0,0,10-65a.8.8,0,0,0,0,1.131l6.644,6.631Z" transform="translate(-9.766 65.234)" fill="#1b1d1f"/>
    </g>
  </g>
</svg>
