<svg id="money_1_" data-name="money (1)" xmlns="http://www.w3.org/2000/svg" width="32" height="27.2" viewBox="0 0 32 27.2">
  <path id="Path_20857" data-name="Path 20857" d="M27.462,38.867v7.159L32,44.309,25.711,28.588,0,38.867" transform="translate(0 -28.588)" fill="#6f9935"/>
  <path id="Path_20858" data-name="Path 20858" d="M43.483,146.906V138.94H17.95l-1.95.779v.523H42.174V147.4Z" transform="translate(-14.698 -129.963)" fill="#658b30"/>
  <path id="Path_20859" data-name="Path 20859" d="M0,154.94H27.483v16.921H0Z" transform="translate(0 -144.661)" fill="#79a73a"/>
  <path id="Path_20860" data-name="Path 20860" d="M32,190.005a4.566,4.566,0,0,0,3.065-3.065h16a4.565,4.565,0,0,0,3.065,3.065v5.584a4.565,4.565,0,0,0-3.065,3.065h-16A4.565,4.565,0,0,0,32,195.589Z" transform="translate(-29.397 -174.058)" fill="#aac16b"/>
  <circle id="Ellipse_781" data-name="Ellipse 781" cx="3.254" cy="3.254" r="3.254" transform="translate(10.474 15.485)" fill="#79a73a"/>
  <path id="Path_20861" data-name="Path 20861" d="M107.724,88.8l-1.543-3.97-.07-.175a4.565,4.565,0,0,1-3.982-1.712l-.174.07L88,88.8Z" transform="translate(-80.753 -78.518)" fill="#aac16b"/>
  <path id="Path_20862" data-name="Path 20862" d="M91.139,138.94,88,140.242h19.724l-.506-1.3Z" transform="translate(-80.753 -129.963)" fill="#89b140"/>
  <g id="Group_33573" data-name="Group 33573" transform="translate(5.911 18.089)">
    <circle id="Ellipse_782" data-name="Ellipse 782" cx="0.651" cy="0.651" r="0.651" fill="#79a73a"/>
    <circle id="Ellipse_783" data-name="Ellipse 783" cx="0.651" cy="0.651" r="0.651" transform="translate(14.318)" fill="#79a73a"/>
  </g>
</svg>
