<svg xmlns="http://www.w3.org/2000/svg" xmlns:xlink="http://www.w3.org/1999/xlink" width="150" height="150" viewBox="0 0 150 150">
  <defs>
    <filter id="Path_12473" x="25" y="30" width="93.293" height="86.115" filterUnits="userSpaceOnUse">
      <feOffset dy="3" input="SourceAlpha"/>
      <feGaussianBlur stdDeviation="3" result="blur"/>
      <feFlood flood-opacity="0.051"/>
      <feComposite operator="in" in2="blur"/>
      <feComposite in="SourceGraphic"/>
    </filter>
    <filter id="Exclusion_1" x="58.225" y="60.238" width="66" height="66.001" filterUnits="userSpaceOnUse">
      <feOffset dy="3" input="SourceAlpha"/>
      <feGaussianBlur stdDeviation="3" result="blur-2"/>
      <feFlood flood-opacity="0.051"/>
      <feComposite operator="in" in2="blur-2"/>
      <feComposite in="SourceGraphic"/>
    </filter>
  </defs>
  <g id="Group_19593" data-name="Group 19593" transform="translate(-936 -4356)">
    <rect id="Rectangle_4536" data-name="Rectangle 4536" width="150" height="150" rx="64" transform="translate(936 4356)" fill="#ade6ff"/>
    <g id="Group_19592" data-name="Group 19592" transform="translate(970 4392)">
      <g id="Thin-S" transform="translate(0 0)">
        <g transform="matrix(1, 0, 0, 1, -34, -36)" filter="url(#Path_12473)">
          <path id="Path_12473-2" data-name="Path 12473" d="M20.313-1.123h54.15c6.982,0,10.6-3.662,10.6-10.5v-47.07c0-6.885-3.613-10.547-10.6-10.547H20.313c-6.934,0-10.547,3.613-10.547,10.547v47.07C9.766-4.687,13.379-1.123,20.313-1.123Zm-.1-3.32c-4.687,0-7.129-2.441-7.129-7.129V-45.508c0-4.736,2.441-7.178,7.129-7.178H74.561c4.541,0,7.178,2.441,7.178,7.178v33.936c0,4.688-2.637,7.129-7.178,7.129ZM39.648-39.209h2.246c1.074,0,1.27-.244,1.27-1.27v-2.246c0-1.025-.2-1.221-1.27-1.221H39.648c-1.025,0-1.27.2-1.27,1.221v2.246C38.379-39.453,38.623-39.209,39.648-39.209Zm13.233,0h2.246c1.074,0,1.27-.244,1.27-1.27v-2.246c0-1.025-.2-1.221-1.27-1.221H52.881c-1.074,0-1.27.2-1.27,1.221v2.246C51.611-39.453,51.807-39.209,52.881-39.209Zm13.232,0h2.246c1.074,0,1.27-.244,1.27-1.27v-2.246c0-1.025-.2-1.221-1.27-1.221H66.113c-1.074,0-1.269.2-1.269,1.221v2.246C64.844-39.453,65.039-39.209,66.113-39.209Zm-39.7,12.988h2.246c1.074,0,1.27-.2,1.27-1.221v-2.246c0-1.025-.2-1.221-1.27-1.221H26.416c-1.025,0-1.27.2-1.27,1.221v2.246C25.146-26.416,25.391-26.221,26.416-26.221Zm13.232,0h2.246c1.074,0,1.27-.2,1.27-1.221v-2.246c0-1.025-.2-1.221-1.27-1.221H39.648c-1.025,0-1.27.2-1.27,1.221v2.246C38.379-26.416,38.623-26.221,39.648-26.221Zm13.233,0h2.246c1.074,0,1.27-.2,1.27-1.221v-2.246c0-1.025-.2-1.221-1.27-1.221H52.881c-1.074,0-1.27.2-1.27,1.221v2.246C51.611-26.416,51.807-26.221,52.881-26.221Zm13.232,0h2.246c1.074,0,1.27-.2,1.27-1.221v-2.246c0-1.025-.2-1.221-1.27-1.221H66.113c-1.074,0-1.269.2-1.269,1.221v2.246C64.844-26.416,65.039-26.221,66.113-26.221Zm-39.7,13.037h2.246c1.074,0,1.27-.2,1.27-1.221V-16.65c0-1.025-.2-1.221-1.27-1.221H26.416c-1.025,0-1.27.2-1.27,1.221V-14.4C25.146-13.379,25.391-13.184,26.416-13.184Zm13.232,0h2.246c1.074,0,1.27-.2,1.27-1.221V-16.65c0-1.025-.2-1.221-1.27-1.221H39.648c-1.025,0-1.27.2-1.27,1.221V-14.4C38.379-13.379,38.623-13.184,39.648-13.184Zm13.233,0h2.246c1.074,0,1.27-.2,1.27-1.221V-16.65c0-1.025-.2-1.221-1.27-1.221H52.881c-1.074,0-1.27.2-1.27,1.221V-14.4C51.611-13.379,51.807-13.184,52.881-13.184Z" transform="translate(24.23 105.24)" fill="#fff"/>
        </g>
      </g>
      <g id="Group_19538" data-name="Group 19538" transform="translate(33.225 30.239)">
        <g transform="matrix(1, 0, 0, 1, -67.22, -66.24)" filter="url(#Exclusion_1)">
          <path id="Exclusion_1-2" data-name="Exclusion 1" d="M24,48A24.007,24.007,0,0,1,14.658,1.885,24.006,24.006,0,0,1,33.341,46.114,23.851,23.851,0,0,1,24,48Zm8.944-32.8a1.28,1.28,0,0,0-.528.108.8.8,0,0,0-.36.3l-7.2,10.152a1.219,1.219,0,0,0-.264.72v.959a.534.534,0,0,0,.552.553h7.776v3.456a.534.534,0,0,0,.553.552h1.2a.533.533,0,0,0,.552-.552V27.992h2.184a.534.534,0,0,0,.552-.553v-.984a.521.521,0,0,0-.167-.4.581.581,0,0,0-.409-.156h-2.16V15.752a.534.534,0,0,0-.552-.553ZM17.056,17a3.06,3.06,0,0,1,2.268.792,2.994,2.994,0,0,1,.779,2.184,3.481,3.481,0,0,1-.7,2.052,15.371,15.371,0,0,1-2.544,2.508l-5.088,5.088a1.413,1.413,0,0,0-.6,1.056v.769a.534.534,0,0,0,.553.552H22.312a.58.58,0,0,0,.408-.156.522.522,0,0,0,.168-.4v-.985a.539.539,0,0,0-.157-.4.569.569,0,0,0-.419-.156H14.824l4.608-4.68a12.387,12.387,0,0,0,2.34-2.6,5.065,5.065,0,0,0,.756-2.724,4.893,4.893,0,0,0-1.381-3.564,5.516,5.516,0,0,0-4.091-1.4,5.826,5.826,0,0,0-3.037.756,5.132,5.132,0,0,0-1.908,1.944,5.588,5.588,0,0,0-.7,2.484.424.424,0,0,0,.144.324.515.515,0,0,0,.36.132h1.248a.659.659,0,0,0,.4-.132.626.626,0,0,0,.228-.42,3.717,3.717,0,0,1,1.032-2.2A3.055,3.055,0,0,1,17.056,17Zm15.888,8.952H27.159l5.784-8.232v8.231Z" transform="translate(67.22 66.24)" fill="#fff"/>
        </g>
      </g>
    </g>
  </g>
</svg>
