<svg xmlns="http://www.w3.org/2000/svg" xmlns:xlink="http://www.w3.org/1999/xlink" width="150" height="150" viewBox="0 0 150 150">
  <defs>
    <filter id="Path_12577" x="36.472" y="45.654" width="77.169" height="94.342" filterUnits="userSpaceOnUse">
      <feOffset dy="3" input="SourceAlpha"/>
      <feGaussianBlur stdDeviation="3" result="blur"/>
      <feFlood flood-opacity="0.09"/>
      <feComposite operator="in" in2="blur"/>
      <feComposite in="SourceGraphic"/>
    </filter>
    <filter id="Polygon_5" x="61.141" y="16.181" width="31" height="30" filterUnits="userSpaceOnUse">
      <feOffset dy="3" input="SourceAlpha"/>
      <feGaussianBlur stdDeviation="3" result="blur-2"/>
      <feFlood flood-opacity="0.09"/>
      <feComposite operator="in" in2="blur-2"/>
      <feComposite in="SourceGraphic"/>
    </filter>
    <filter id="Polygon_7" x="71.724" y="25.435" width="29.835" height="29.493" filterUnits="userSpaceOnUse">
      <feOffset dy="3" input="SourceAlpha"/>
      <feGaussianBlur stdDeviation="3" result="blur-3"/>
      <feFlood flood-opacity="0.09"/>
      <feComposite operator="in" in2="blur-3"/>
      <feComposite in="SourceGraphic"/>
    </filter>
    <filter id="Polygon_8" x="53.446" y="29.666" width="28.39" height="29.032" filterUnits="userSpaceOnUse">
      <feOffset dy="3" input="SourceAlpha"/>
      <feGaussianBlur stdDeviation="3" result="blur-4"/>
      <feFlood flood-opacity="0.09"/>
      <feComposite operator="in" in2="blur-4"/>
      <feComposite in="SourceGraphic"/>
    </filter>
    <filter id="Line_226" x="47.227" y="36.267" width="30.828" height="30.828" filterUnits="userSpaceOnUse">
      <feOffset dy="3" input="SourceAlpha"/>
      <feGaussianBlur stdDeviation="3" result="blur-5"/>
      <feFlood flood-opacity="0.09"/>
      <feComposite operator="in" in2="blur-5"/>
      <feComposite in="SourceGraphic"/>
    </filter>
    <filter id="Line_227" x="83.531" y="30.571" width="22.22" height="37.22" filterUnits="userSpaceOnUse">
      <feOffset dy="3" input="SourceAlpha"/>
      <feGaussianBlur stdDeviation="3" result="blur-6"/>
      <feFlood flood-opacity="0.09"/>
      <feComposite operator="in" in2="blur-6"/>
      <feComposite in="SourceGraphic"/>
    </filter>
    <filter id="Path_12579" x="67.413" y="31.453" width="23.456" height="31.456" filterUnits="userSpaceOnUse">
      <feOffset dy="3" input="SourceAlpha"/>
      <feGaussianBlur stdDeviation="3" result="blur-7"/>
      <feFlood flood-opacity="0.09"/>
      <feComposite operator="in" in2="blur-7"/>
      <feComposite in="SourceGraphic"/>
    </filter>
  </defs>
  <g id="Group_19591" data-name="Group 19591" transform="translate(-1330 -4356)">
    <rect id="Rectangle_4535" data-name="Rectangle 4535" width="150" height="150" rx="64" transform="translate(1330 4356)" fill="#ffb09a"/>
    <g id="Group_19590" data-name="Group 19590" transform="translate(1375.972 4378.181)">
      <g transform="matrix(1, 0, 0, 1, -45.97, -22.18)" filter="url(#Path_12577)">
        <path id="Path_12577-2" data-name="Path 12577" d="M75.342,33.256c0-12.354-6.689-21.191-19.238-25.635L36.035.541C32.08-.875,28.76.59,27.539,3.763c-1.123,3.076.1,6.3,3.955,7.861l10.059,4.053c.244.049.342.2.342.342,0,.2-.146.293-.342.293H6.689C2.539,16.312,0,19.1,0,22.709c0,3.516,2.539,6.348,6.689,6.348H20.361a10.866,10.866,0,0,0-.537,3.223,6.07,6.07,0,0,0,4.443,6.152A11.685,11.685,0,0,0,23.633,42,5.91,5.91,0,0,0,27.979,48c.049,6.592,4.834,10.156,13.574,10.156h7.275C66.357,58.158,75.342,47.562,75.342,33.256Zm-2.881.049c0,12.842-8.057,21.924-23.828,21.924H41.8c-7.129,0-10.937-2.393-10.937-6.836h4.98a1.455,1.455,0,1,0,0-2.881H30.713c-2.734,0-4.3-1.416-4.3-3.857A9.478,9.478,0,0,1,27,38.676h7.373a1.455,1.455,0,1,0,0-2.881h-7.52c-2.734,0-4.3-1.416-4.3-3.857a8.374,8.374,0,0,1,.635-2.979h9.766a1.44,1.44,0,0,0,1.611-1.416,1.506,1.506,0,0,0-1.611-1.465H6.592c-2.295,0-3.809-1.27-3.809-3.369S4.3,19.291,6.592,19.291h37.5a2.269,2.269,0,0,0,2.393-2.344,2.731,2.731,0,0,0-1.9-2.637L32.666,9.428c-2.2-.928-3.223-2.588-2.49-4.443.684-1.953,2.588-2.539,4.883-1.709l20.068,7.08C66.553,14.359,72.461,22.513,72.461,33.3Z" transform="translate(104.13 52.15) rotate(90)" fill="#fff" stroke="#fff" stroke-width="1"/>
      </g>
      <g transform="matrix(1, 0, 0, 1, -45.97, -22.18)" filter="url(#Polygon_5)">
        <g id="Polygon_5-2" data-name="Polygon 5" transform="translate(70.14 22.18)" fill="#fff">
          <path d="M 9.128170013427734 10.62626361846924 C 9.047980308532715 10.62627410888672 8.968640327453613 10.60560417175293 8.892340660095215 10.56483364105225 L 7.206940650939941 9.664223670959473 C 6.990190505981445 9.548413276672363 6.745740413665771 9.487194061279297 6.500000476837158 9.487194061279297 C 6.254260540008545 9.487194061279297 6.009810447692871 9.548413276672363 5.793070316314697 9.664223670959473 L 4.107650279998779 10.56483364105225 C 4.031370639801025 10.60559368133545 3.952020406723022 10.62626361846924 3.871790409088135 10.62626361846924 C 3.724620580673218 10.62626361846924 3.578770399093628 10.5557336807251 3.481650590896606 10.43759346008301 C 3.415000438690186 10.35651397705078 3.343520402908325 10.21948337554932 3.381450414657593 10.02710342407227 L 3.726270437240601 8.27850341796875 C 3.827230453491211 7.766563892364502 3.650240421295166 7.230333805084229 3.26438045501709 6.879063606262207 L 1.949220418930054 5.681863784790039 C 1.729120492935181 5.481493949890137 1.786570429801941 5.231983661651611 1.809420466423035 5.16028356552124 C 1.832270503044128 5.088583946228027 1.929800510406494 4.851853847503662 2.225250482559204 4.815803527832031 L 4.06920051574707 4.590823650360107 C 4.57766056060791 4.528783798217773 5.01447057723999 4.216483592987061 5.23766040802002 3.755423784255981 L 6.049960613250732 2.077333688735962 C 6.135480403900146 1.900653719902039 6.303720474243164 1.795173764228821 6.500000476837158 1.795173764228821 C 6.696280479431152 1.795173764228821 6.86452054977417 1.900653719902039 6.950040340423584 2.07732367515564 L 7.762330532073975 3.755413770675659 C 7.985530376434326 4.216483592987061 8.422340393066406 4.528783798217773 8.930810928344727 4.590823650360107 L 10.77474021911621 4.815803527832031 C 11.07021045684814 4.851853847503662 11.1677303314209 5.08859395980835 11.19058036804199 5.160293579101562 C 11.21343040466309 5.231983661651611 11.27089023590088 5.481493949890137 11.05078029632568 5.681853771209717 L 9.735630035400391 6.879063606262207 C 9.349760055541992 7.230333805084229 9.172770500183105 7.766563892364502 9.273730278015137 8.27850341796875 L 9.618550300598145 10.02711391448975 C 9.65647029876709 10.21943378448486 9.584990501403809 10.35645389556885 9.518340110778809 10.43752384185791 C 9.421210289001465 10.55569362640381 9.275350570678711 10.62625408172607 9.128170013427734 10.62626361846924 Z" stroke="none"/>
          <path d="M 6.499990463256836 2.295164108276367 L 6.500000476837158 2.295184135437012 L 5.687700271606445 3.973283767700195 C 5.390110492706299 4.588033676147461 4.807690620422363 5.004433631896973 4.129740715026855 5.087143898010254 L 2.285810470581055 5.312113761901855 L 3.600940704345703 6.509313583374023 C 4.115440368652344 6.977663516998291 4.3514404296875 7.692643642425537 4.216830253601074 8.37523365020752 L 3.872010231018066 10.12384414672852 L 5.55741024017334 9.223243713378906 C 5.846400260925293 9.068813323974609 6.172340393066406 8.987194061279297 6.500000476837158 8.987194061279297 C 6.827640533447266 8.987194061279297 7.153580665588379 9.068813323974609 7.442580699920654 9.223234176635742 L 9.127974510192871 10.12383460998535 C 9.127978324890137 10.1238317489624 9.127983093261719 10.12382888793945 9.12799072265625 10.12384414672852 L 8.783180236816406 8.375244140625 C 8.648571014404297 7.692653656005859 8.884550094604492 6.977673530578613 9.399040222167969 6.509313583374023 L 10.71419048309326 5.312123775482178 L 8.870250701904297 5.087143898010254 C 8.192300796508789 5.004433631896973 7.609890460968018 4.588033676147461 7.312290668487549 3.973263740539551 L 6.499990463256836 2.295164108276367 M 6.500000476837158 1.29517650604248 C 6.85899543762207 1.29517650604248 7.217990398406982 1.483278274536133 7.40009069442749 1.85948371887207 L 8.212380409240723 3.537563323974609 C 8.360500335693359 3.843544006347656 8.653910636901855 4.053333282470703 8.991360664367676 4.094503402709961 L 10.83530044555664 4.319483757019043 C 11.68443012237549 4.423083305358887 12.01993083953857 5.47576379776001 11.38736057281494 6.0516037940979 L 10.07221031188965 7.248803615570068 C 9.813350677490234 7.484453678131104 9.696550369262695 7.838313579559326 9.764280319213867 8.181763648986816 L 10.10910034179688 9.930374145507812 C 10.27229022979736 10.75793361663818 9.400650024414062 11.40335369110107 8.656700134277344 11.00582408905029 L 6.971290588378906 10.1052131652832 C 6.676800727844238 9.947854042053223 6.323200225830078 9.947854042053223 6.02871036529541 10.1052131652832 L 4.343300819396973 11.00582408905029 C 3.599344253540039 11.40335655212402 2.727709770202637 10.75793266296387 2.890900611877441 9.930374145507812 L 3.235720634460449 8.181763648986816 C 3.303450584411621 7.838313579559326 3.186650276184082 7.484453678131104 2.927780151367188 7.248803615570068 L 1.612640380859375 6.0516037940979 C 0.9800605773925781 5.47576379776001 1.315570831298828 4.423083305358887 2.164700508117676 4.319483757019043 L 4.008630752563477 4.094503402709961 C 4.346080780029297 4.053333282470703 4.639500617980957 3.843544006347656 4.787620544433594 3.537563323974609 L 5.599910259246826 1.85948371887207 C 5.782010555267334 1.483278274536133 6.141005516052246 1.29517650604248 6.500000476837158 1.29517650604248 Z" stroke="none" fill="#fff"/>
        </g>
      </g>
      <g transform="matrix(1, 0, 0, 1, -45.97, -22.18)" filter="url(#Polygon_7)">
        <g id="Polygon_7-2" data-name="Polygon 7" transform="translate(84.84 31.44) rotate(31)" fill="#fff">
          <path d="M 6.722040176391602 7.313271045684814 C 6.714960098266602 7.313271045684814 6.707389831542969 7.311151027679443 6.698910236358643 7.306780815124512 L 4.843160152435303 6.35188102722168 C 4.737490177154541 6.297501087188721 4.61883020401001 6.268770694732666 4.5 6.268770694732666 C 4.38116979598999 6.268770694732666 4.262509822845459 6.297501087188721 4.15684986114502 6.351871013641357 L 2.301090002059937 7.306790828704834 C 2.292609930038452 7.311151027679443 2.285039901733398 7.313271045684814 2.277940034866333 7.313271045684814 C 2.263920068740845 7.313271045684814 2.248199939727783 7.305100917816162 2.237890005111694 7.292470932006836 C 2.228300094604492 7.280710697174072 2.225790023803711 7.269071102142334 2.229219913482666 7.252290725708008 L 2.611890077590942 5.383630752563477 C 2.665849924087524 5.120191097259521 2.573740005493164 4.846430778503418 2.371530055999756 4.66917085647583 L 0.9072700142860413 3.385610818862915 C 0.8999599814414978 3.37920093536377 0.8828499913215637 3.364190816879272 0.892490029335022 3.333170890808105 C 0.9021400213241577 3.302140951156616 0.9247499704360962 3.29948091506958 0.9344000220298767 3.298350811004639 L 2.976880073547363 3.058380842208862 C 3.228080034255981 3.028870820999146 3.445869922637939 2.876330852508545 3.559469938278198 2.650340795516968 L 4.455319881439209 0.8681609034538269 C 4.459109783172607 0.8606309294700623 4.469170093536377 0.8406209349632263 4.5 0.8406209349632263 C 4.530829906463623 0.8406209349632263 4.540890216827393 0.8606309294700623 4.544680118560791 0.8681709170341492 L 5.440529823303223 2.650340795516968 C 5.554150104522705 2.876340866088867 5.771940231323242 3.028870820999146 6.023129940032959 3.058380842208862 L 8.065600395202637 3.298350811004639 C 8.075249671936035 3.29948091506958 8.097860336303711 3.302140951156616 8.107509613037109 3.333170890808105 C 8.11715030670166 3.364190816879272 8.100040435791016 3.37920093536377 8.092729568481445 3.385610818862915 L 6.628469944000244 4.669180870056152 C 6.426259994506836 4.846430778503418 6.334149837493896 5.120191097259521 6.388110160827637 5.383630752563477 L 6.770780086517334 7.252290725708008 C 6.774209976196289 7.269061088562012 6.771699905395508 7.280691146850586 6.762100219726562 7.292450904846191 C 6.751780033111572 7.305100917816162 6.73606014251709 7.313271045684814 6.722040176391602 7.313271045684814 Z" stroke="none"/>
          <path d="M 4.499997615814209 1.558587551116943 L 3.872189998626709 2.807510375976562 C 3.705589771270752 3.138980388641357 3.386149883270264 3.362710475921631 3.017720222473145 3.405990600585938 L 1.645418643951416 3.567222118377686 L 2.602250099182129 4.405980110168457 C 2.898819923400879 4.665960311889648 3.033909797668457 5.067480087280273 2.954780101776123 5.453840255737305 L 2.697730541229248 6.709067344665527 L 3.996709823608398 6.040650367736816 C 4.306670188903809 5.881170272827148 4.693320274353027 5.881160259246826 5.003299713134766 6.040660381317139 L 6.302267074584961 6.709064483642578 L 6.045219898223877 5.453860282897949 C 5.966090202331543 5.067480087280273 6.101180076599121 4.665960311889648 6.397749900817871 4.405980110168457 L 7.354582786560059 3.567221164703369 L 5.982290267944336 3.405990600585938 C 5.613869667053223 3.362710475921631 5.294440269470215 3.139000415802002 5.127810001373291 2.807540416717529 L 4.499997615814209 1.558587551116943 M 4.5 0.4906206130981445 C 4.641772270202637 0.4906206130981445 4.783545017242432 0.5640702247619629 4.8573899269104 0.710970401763916 L 5.75324010848999 2.493150234222412 C 5.813650131225586 2.613320350646973 5.930389881134033 2.695080280303955 6.063960075378418 2.710770606994629 L 8.106439590454102 2.950740337371826 C 8.450619697570801 2.991180419921875 8.584039688110352 3.420360565185547 8.323439598083496 3.648800373077393 L 6.859179973602295 4.932370185852051 C 6.751090049743652 5.027120590209961 6.702150344848633 5.172590255737305 6.730989933013916 5.313410758972168 L 7.113659858703613 7.182070255279541 C 7.181039810180664 7.511110305786133 6.837419986724854 7.771670341491699 6.538769721984863 7.618000507354736 L 4.683020114898682 6.663090705871582 C 4.568159580230713 6.60399055480957 4.431840419769287 6.60399055480957 4.316979885101318 6.663090705871582 L 2.461229801177979 7.618000507354736 C 2.162579536437988 7.771670818328857 1.818960189819336 7.511110305786133 1.886340141296387 7.182070255279541 L 2.269010066986084 5.313410758972168 C 2.297850131988525 5.172590255737305 2.248909950256348 5.027120590209961 2.140820026397705 4.932370185852051 L 0.6765604019165039 3.648800373077393 C 0.4159603118896484 3.420360565185547 0.5493803024291992 2.991180419921875 0.8935604095458984 2.950740337371826 L 2.936039924621582 2.710770606994629 C 3.069610118865967 2.695080280303955 3.186349868774414 2.613320350646973 3.246749877929688 2.493150234222412 L 4.1426100730896 0.710970401763916 C 4.216454982757568 0.5640702247619629 4.358227729797363 0.4906206130981445 4.5 0.4906206130981445 Z" stroke="none" fill="#fff"/>
        </g>
      </g>
      <g transform="matrix(1, 0, 0, 1, -45.97, -22.18)" filter="url(#Polygon_8)">
        <g id="Polygon_8-2" data-name="Polygon 8" transform="matrix(0.31, -0.95, 0.95, 0.31, 62.45, 44.23)" fill="#fff">
          <path d="M 6.722040176391602 7.313271045684814 C 6.714960098266602 7.313271045684814 6.707389831542969 7.311151027679443 6.698910236358643 7.306780815124512 L 4.843160152435303 6.35188102722168 C 4.737490177154541 6.297501087188721 4.61883020401001 6.268770694732666 4.5 6.268770694732666 C 4.38116979598999 6.268770694732666 4.262509822845459 6.297501087188721 4.15684986114502 6.351871013641357 L 2.301090002059937 7.306790828704834 C 2.292609930038452 7.311151027679443 2.285039901733398 7.313271045684814 2.277940034866333 7.313271045684814 C 2.263920068740845 7.313271045684814 2.248199939727783 7.305100917816162 2.237890005111694 7.292470932006836 C 2.228300094604492 7.280710697174072 2.225790023803711 7.269071102142334 2.229219913482666 7.252290725708008 L 2.611890077590942 5.383630752563477 C 2.665849924087524 5.120191097259521 2.573740005493164 4.846430778503418 2.371530055999756 4.66917085647583 L 0.9072700142860413 3.385610818862915 C 0.8999599814414978 3.37920093536377 0.8828499913215637 3.364190816879272 0.892490029335022 3.333170890808105 C 0.9021400213241577 3.302140951156616 0.9247499704360962 3.29948091506958 0.9344000220298767 3.298350811004639 L 2.976880073547363 3.058380842208862 C 3.228080034255981 3.028870820999146 3.445869922637939 2.876330852508545 3.559469938278198 2.650340795516968 L 4.455319881439209 0.8681609034538269 C 4.459109783172607 0.8606309294700623 4.469170093536377 0.8406209349632263 4.5 0.8406209349632263 C 4.530829906463623 0.8406209349632263 4.540890216827393 0.8606309294700623 4.544680118560791 0.8681709170341492 L 5.440529823303223 2.650340795516968 C 5.554150104522705 2.876340866088867 5.771940231323242 3.028870820999146 6.023129940032959 3.058380842208862 L 8.065600395202637 3.298350811004639 C 8.075249671936035 3.29948091506958 8.097860336303711 3.302140951156616 8.107509613037109 3.333170890808105 C 8.11715030670166 3.364190816879272 8.100040435791016 3.37920093536377 8.092729568481445 3.385610818862915 L 6.628469944000244 4.669180870056152 C 6.426259994506836 4.846430778503418 6.334149837493896 5.120191097259521 6.388110160827637 5.383630752563477 L 6.770780086517334 7.252290725708008 C 6.774209976196289 7.269061088562012 6.771699905395508 7.280691146850586 6.762100219726562 7.292450904846191 C 6.751780033111572 7.305100917816162 6.73606014251709 7.313271045684814 6.722040176391602 7.313271045684814 Z" stroke="none"/>
          <path d="M 4.499997615814209 1.558587551116943 L 3.872189998626709 2.807510375976562 C 3.705589771270752 3.138980388641357 3.386149883270264 3.362710475921631 3.017720222473145 3.405990600585938 L 1.645418643951416 3.567222118377686 L 2.602250099182129 4.405980110168457 C 2.898819923400879 4.665960311889648 3.033909797668457 5.067480087280273 2.954780101776123 5.453840255737305 L 2.697730541229248 6.709067344665527 L 3.996709823608398 6.040650367736816 C 4.306670188903809 5.881170272827148 4.693320274353027 5.881160259246826 5.003299713134766 6.040660381317139 L 6.302267074584961 6.709064483642578 L 6.045219898223877 5.453860282897949 C 5.966090202331543 5.067480087280273 6.101180076599121 4.665960311889648 6.397749900817871 4.405980110168457 L 7.354582786560059 3.567221164703369 L 5.982290267944336 3.405990600585938 C 5.613869667053223 3.362710475921631 5.294440269470215 3.139000415802002 5.127810001373291 2.807540416717529 L 4.499997615814209 1.558587551116943 M 4.5 0.4906206130981445 C 4.641772270202637 0.4906206130981445 4.783545017242432 0.5640702247619629 4.8573899269104 0.710970401763916 L 5.75324010848999 2.493150234222412 C 5.813650131225586 2.613320350646973 5.930389881134033 2.695080280303955 6.063960075378418 2.710770606994629 L 8.106439590454102 2.950740337371826 C 8.450619697570801 2.991180419921875 8.584039688110352 3.420360565185547 8.323439598083496 3.648800373077393 L 6.859179973602295 4.932370185852051 C 6.751090049743652 5.027120590209961 6.702150344848633 5.172590255737305 6.730989933013916 5.313410758972168 L 7.113659858703613 7.182070255279541 C 7.181039810180664 7.511110305786133 6.837419986724854 7.771670341491699 6.538769721984863 7.618000507354736 L 4.683020114898682 6.663090705871582 C 4.568159580230713 6.60399055480957 4.431840419769287 6.60399055480957 4.316979885101318 6.663090705871582 L 2.461229801177979 7.618000507354736 C 2.162579536437988 7.771670818328857 1.818960189819336 7.511110305786133 1.886340141296387 7.182070255279541 L 2.269010066986084 5.313410758972168 C 2.297850131988525 5.172590255737305 2.248909950256348 5.027120590209961 2.140820026397705 4.932370185852051 L 0.6765604019165039 3.648800373077393 C 0.4159603118896484 3.420360565185547 0.5493803024291992 2.991180419921875 0.8935604095458984 2.950740337371826 L 2.936039924621582 2.710770606994629 C 3.069610118865967 2.695080280303955 3.186349868774414 2.613320350646973 3.246749877929688 2.493150234222412 L 4.1426100730896 0.710970401763916 C 4.216454982757568 0.5640702247619629 4.358227729797363 0.4906206130981445 4.5 0.4906206130981445 Z" stroke="none" fill="#fff"/>
        </g>
      </g>
      <g transform="matrix(1, 0, 0, 1, -45.97, -22.18)" filter="url(#Line_226)">
        <line id="Line_226-2" data-name="Line 226" x1="10" y1="10" transform="translate(57.64 43.68)" fill="none" stroke="#fff" stroke-linecap="round" stroke-width="2"/>
      </g>
      <g transform="matrix(1, 0, 0, 1, -45.97, -22.18)" filter="url(#Line_227)">
        <line id="Line_227-2" data-name="Line 227" y1="17" x2="2" transform="translate(93.64 37.68)" fill="none" stroke="#fff" stroke-linecap="round" stroke-width="2"/>
      </g>
      <g transform="matrix(1, 0, 0, 1, -45.97, -22.18)" filter="url(#Path_12579)">
        <path id="Path_12579-2" data-name="Path 12579" d="M3,11,0,0" transform="translate(77.64 38.68)" fill="#fff" stroke="#fff" stroke-linecap="round" stroke-width="2"/>
      </g>
    </g>
  </g>
</svg>
