<svg xmlns="http://www.w3.org/2000/svg" width="155" height="52.209" viewBox="0 0 155 52.209">
  <g id="Group_943" data-name="Group 943" transform="translate(-64 -44.822)">
    <g id="Group_943-2" data-name="Group 943" transform="translate(64 44.822)">
      <rect id="Rectangle_1558" data-name="Rectangle 1558" width="5.467" height="29.075" transform="translate(31.689 1.029)" fill="#9e457b"/>
      <path id="Path_805" data-name="Path 805" d="M80.245,60.831l3.663,2.927a2.1,2.1,0,0,1-.088,3.363,8.53,8.53,0,0,1-9.578-.024,2.1,2.1,0,0,1-.083-3.362l3.132-2.5a1.581,1.581,0,0,0,0-2.471l-3.3-2.635a2.1,2.1,0,0,1,.056-3.346,8.554,8.554,0,0,1,5.008-1.616,8.64,8.64,0,0,1,6.7,3.221L90.7,50.405a15.014,15.014,0,1,0,3.392,9.663H80.513A.429.429,0,0,0,80.245,60.831Z" transform="translate(-64 -44.822)" fill="#9e457b"/>
      <path id="Path_806" data-name="Path 806" d="M202.594,62.277a9.654,9.654,0,0,0-7.24,3.274,9.673,9.673,0,0,0-16.927,6.413V83.115h4.894V71.963a4.793,4.793,0,0,1,9.587,0V83.115H197.8V71.963a4.794,4.794,0,0,1,9.587,0V83.115h4.893V71.963A9.7,9.7,0,0,0,202.594,62.277Z" transform="translate(-117.687 -53.012)" fill="#9e457b"/>
      <path id="Path_807" data-name="Path 807" d="M147.2,63.116A10.2,10.2,0,1,0,149.676,83.2V78a5.3,5.3,0,1,1,2.827-4.683v10.1H157.4v-10.1A10.208,10.208,0,0,0,147.2,63.116Z" transform="translate(-98.252 -53.405)" fill="#9e457b"/>
      <path id="Path_808" data-name="Path 808" d="M327.779,63.116A10.2,10.2,0,1,0,330.255,83.2V78a5.3,5.3,0,1,1,2.827-4.683v10.1h4.893v-10.1A10.208,10.208,0,0,0,327.779,63.116Z" transform="translate(-182.976 -53.405)" fill="#9e457b"/>
      <path id="Path_809" data-name="Path 809" d="M253.5,74.422h13.071V71.976a10.687,10.687,0,1,0-2.944,7.359l-3.7-3.215a5.786,5.786,0,1,1,1.205-6.59H253.5Z" transform="translate(-149.02 -52.552)" fill="#9e457b"/>
      <path id="Path_810" data-name="Path 810" d="M302.32,62.712a8.3,8.3,0,0,0-2.848-.44,6.4,6.4,0,0,0-5.718,2.765v-2.22h-5.3v20.3h5.467V72.053c0-3.016,1.738-4.566,4.273-4.566a8.87,8.87,0,0,1,3.309.649Z" transform="translate(-169.309 -53.009)" fill="#9e457b"/>
    </g>
    <g id="Group_944" data-name="Group 944" transform="translate(95.378 79.894)">
      <path id="Path_811" data-name="Path 811" d="M160.174,126.2a.981.981,0,0,1-1,1,1.006,1.006,0,0,1-1-1v-3.9h-1.783v3.9a.958.958,0,0,1-1,1,.932.932,0,0,1-.943-1v-3.9H152.61v4.777h-2.87c-.266-2.4-1.763-4.571-4.2-4.9v-1.8h-1.763V122.2a5.27,5.27,0,0,0-4.161,4.879H131.25V119.7h-1.762v8.446a2.276,2.276,0,0,1-4.551,0c0-1.087.7-1.62,1.476-2.173l-.882-1.6a4.194,4.194,0,0,0-2.419,3.772,4.051,4.051,0,0,0,4.079,4.018,4.154,4.154,0,0,0,4-3.3h21.483a1.545,1.545,0,0,0,1.045-.389,2.556,2.556,0,0,0,1.66.615,2.61,2.61,0,0,0,1.907-.759,2.629,2.629,0,0,0,1.886.759,2.837,2.837,0,0,0,2.767-2.767V122.3h-1.763Zm-16.4.882h-2.317a3.289,3.289,0,0,1,2.317-3.034Zm1.763,0V124a3.274,3.274,0,0,1,2.337,3.076Z" transform="translate(-123.112 -115.024)" fill="#9e457b"/>
      <rect id="Rectangle_1559" data-name="Rectangle 1559" width="1.784" height="9.081" transform="translate(40.464 4.756)" fill="#9e457b"/>
      <path id="Path_812" data-name="Path 812" d="M200.556,112.553l.7-.943a1.963,1.963,0,0,0-1.537-.717,1.764,1.764,0,0,0-1.579,2.726h-1.189v1.066h4.243v-1.066h-1.168c-.554-.062-1.045-.266-1.066-.84C199.018,111.713,200.166,111.959,200.556,112.553Z" transform="translate(-157.754 -110.893)" fill="#9e457b"/>
      <path id="Path_813" data-name="Path 813" d="M223.551,123.467h-1.169c-.554-.062-1.045-.266-1.066-.841.062-1.066,1.21-.82,1.6-.225l.7-.943a1.963,1.963,0,0,0-1.537-.718,1.765,1.765,0,0,0-1.579,2.727h-1.189v1.066h4.244Z" transform="translate(-168.245 -115.513)" fill="#9e457b"/>
      <path id="Path_814" data-name="Path 814" d="M225.476,127.132h-2.665v-7.257h-1.784v7.257h-6.437a1.528,1.528,0,0,1,0-3.055v-1.763a3.122,3.122,0,0,0-3.239,3.239,3.212,3.212,0,0,0,3.239,3.362h12.668v-9.1h-1.783Z" transform="translate(-164.512 -115.079)" fill="#9e457b"/>
      <circle id="Ellipse_87" data-name="Ellipse 87" cx="0.881" cy="0.881" r="0.881" transform="translate(86.71 14.842)" fill="#9e457b"/>
      <path id="Path_815" data-name="Path 815" d="M272.2,127.15a6.17,6.17,0,0,0-1.722-3.813,4.453,4.453,0,0,0-3.218-1.394,5.127,5.127,0,0,0-3.1,1.086l1.066,1.415a3.385,3.385,0,0,1,2.029-.738,2.74,2.74,0,0,1,1.988.861,4.321,4.321,0,0,1,1.189,2.583h-9.163a3.655,3.655,0,0,0,.041-.451,3.349,3.349,0,0,0-3.26-3.321,3.418,3.418,0,0,0-3.321,3.4,2.213,2.213,0,0,0,.021.369h-8.568v-7.3h-1.784v9.081h11.213A3.357,3.357,0,0,0,258,129.979a3.308,3.308,0,0,0,2.419-1.046h11.848C272.265,128.462,272.265,127.806,272.2,127.15Zm-14.185,1.024a1.478,1.478,0,0,1-1.5-1.5A1.5,1.5,0,0,1,258,125.141a1.572,1.572,0,0,1,1.579,1.537A1.506,1.506,0,0,1,258.019,128.175Z" transform="translate(-180.021 -115.096)" fill="#9e457b"/>
    </g>
  </g>
</svg>
