<svg id="Ultralight-S" xmlns="http://www.w3.org/2000/svg" width="28" height="28" viewBox="0 0 28 28">
  <path id="Path_3716" data-name="Path 3716" d="M20.845-44.363a14.055,14.055,0,0,1-14.009-14,14.055,14.055,0,0,1,14.009-14,14.039,14.039,0,0,1,13.991,14A14.039,14.039,0,0,1,20.845-44.363Zm0-9.315c4.9,0,8.538,2.407,9.6,4.318a13.137,13.137,0,0,0,3.544-9A13.177,13.177,0,0,0,20.845-71.537,13.18,13.18,0,0,0,7.681-58.363a13.13,13.13,0,0,0,3.58,9.021C12.307-51.29,15.924-53.678,20.845-53.678Zm0-2.5c-2.754,0-4.866-2.352-4.866-5.4a5.108,5.108,0,0,1,4.866-5.291,5.093,5.093,0,0,1,4.847,5.291C25.692-58.529,23.6-56.177,20.845-56.177Z" transform="translate(-6.836 72.363)" fill="#828894"/>
</svg>
