<svg xmlns="http://www.w3.org/2000/svg" width="125" height="152" viewBox="0 0 125 152">
  <g id="undraw_empty_cart_co35_1_" data-name="undraw_empty_cart_co35 (1)" transform="translate(0 -7.695)">
    <path id="Path_772" data-name="Path 772" d="M187.536,749.054c2.663,4.939,8.316,7.059,8.316,7.059s1.334-5.888-1.329-10.827-8.316-7.059-8.316-7.059S184.873,744.115,187.536,749.054Z" transform="translate(-178.614 -596.562)" fill="#d0d5de" opacity="0.5"/>
    <path id="Path_779" data-name="Path 779" d="M194.522,749.054c-2.663,4.939-8.316,7.059-8.316,7.059s-1.334-5.888,1.329-10.827,8.315-7.059,8.315-7.059S197.186,744.115,194.522,749.054Z" transform="translate(-88.915 -596.562)" fill="#2f2e41"/>
    <path id="Path_773" data-name="Path 773" d="M162.752,773.744c4.808,2.893,6.66,8.639,6.66,8.639s-5.944,1.056-10.752-1.837-6.66-8.639-6.66-8.639S157.944,770.851,162.752,773.744Z" transform="translate(-152 -622.876)" fill="#d0d5de" opacity="0.5"/>
    <path id="Path_778" data-name="Path 778" d="M158.66,773.744c-4.808,2.893-6.66,8.639-6.66,8.639s5.944,1.056,10.752-1.837,6.66-8.639,6.66-8.639S163.468,770.851,158.66,773.744Z" transform="translate(-54.883 -622.876)" fill="#992e79"/>
    <rect id="Rectangle_509" data-name="Rectangle 509" width="30" height="0.429" transform="translate(88.142 7.695)" fill="#f2f2f2"/>
    <rect id="Rectangle_510" data-name="Rectangle 510" width="0.429" height="3.964" transform="translate(109.571 8.016)" fill="#f2f2f2"/>
    <rect id="Rectangle_511" data-name="Rectangle 511" width="0.429" height="3.964" transform="translate(96.592 8.016)" fill="#f2f2f2"/>
    <rect id="Rectangle_513" data-name="Rectangle 513" width="0.429" height="3.964" transform="translate(111.499 24.409)" fill="#f2f2f2"/>
    <rect id="Rectangle_514" data-name="Rectangle 514" width="0.429" height="3.964" transform="translate(124.571 24.409)" fill="#f2f2f2"/>
    <rect id="Rectangle_521" data-name="Rectangle 521" width="30" height="0.429" transform="translate(88.999 68.457)" fill="#f2f2f2"/>
    <rect id="Rectangle_522" data-name="Rectangle 522" width="0.429" height="3.964" transform="translate(97.232 64.604)" fill="#f2f2f2"/>
    <rect id="Rectangle_523" data-name="Rectangle 523" width="0.429" height="3.964" transform="translate(110.214 64.604)" fill="#f2f2f2"/>
    <rect id="Rectangle_524" data-name="Rectangle 524" width="30" height="0.429" transform="translate(88.428 120.019)" fill="#f2f2f2"/>
    <rect id="Rectangle_525" data-name="Rectangle 525" width="0.429" height="3.964" transform="translate(96.663 116.164)" fill="#f2f2f2"/>
    <rect id="Rectangle_526" data-name="Rectangle 526" width="0.429" height="3.964" transform="translate(109.642 116.164)" fill="#f2f2f2"/>
    <path id="Path_774" data-name="Path 774" d="M176.014,618.241h-50.74v-.365h50.375v-17.7H129.54L127.3,595.5l.329-.158,2.14,4.459h46.245Z" transform="translate(-98.577 -468.009)" fill="#2f2e41"/>
    <circle id="Ellipse_189" data-name="Ellipse 189" cx="3.833" cy="3.833" r="3.833" transform="translate(29.661 151.509)" fill="#3f3d56"/>
    <circle id="Ellipse_190" data-name="Ellipse 190" cx="3.833" cy="3.833" r="3.833" transform="translate(67.31 151.509)" fill="#3f3d56"/>
    <circle id="Ellipse_191" data-name="Ellipse 191" cx="2.373" cy="2.373" r="2.373" transform="translate(113.129 71.7)" fill="#3f3d56"/>
    <path id="Path_775" data-name="Path 775" d="M285.021,517.867H227.989l-12.34-40.336h82.081l-.075.237Zm-56.762-.365h56.494L297.232,477.9h-81.09Z" transform="translate(-202.009 -391.658)" fill="#2f2e41"/>
    <path id="Path_776" data-name="Path 776" d="M143.192,448.789H93.1L82.26,413.015h72.095l-.066.211Z" transform="translate(-64.633 -324.676)" fill="#f2f2f2"/>
    <path id="Path_777" data-name="Path 777" d="M450.171,351.067l-.353-.094,2.409-9.079h14.012v.365H452.508Z" transform="translate(-353.84 -268.739)" fill="#2f2e41"/>
    <rect id="Rectangle_530" data-name="Rectangle 530" width="73.991" height="0.365" transform="translate(17.627 98.127)" fill="#2f2e41"/>
    <rect id="Rectangle_531" data-name="Rectangle 531" width="65.64" height="0.365" transform="translate(21.592 111.554)" fill="#2f2e41"/>
    <rect id="Rectangle_532" data-name="Rectangle 532" width="0.365" height="39.971" transform="translate(54.317 86.056)" fill="#2f2e41"/>
    <rect id="Rectangle_533" data-name="Rectangle 533" width="40.056" height="0.365" transform="matrix(0.065, -0.998, 0.998, 0.065, 68.354, 126.015)" fill="#2f2e41"/>
    <rect id="Rectangle_534" data-name="Rectangle 534" width="0.365" height="40.056" transform="translate(37.669 86.068) rotate(-3.729)" fill="#2f2e41"/>
    <rect id="Rectangle_535" data-name="Rectangle 535" width="125" transform="translate(0 159.629)" fill="#2f2e41"/>
    <rect id="Rectangle_536" data-name="Rectangle 536" width="30" height="0.429" transform="translate(12.91 75.517)" fill="#f2f2f2"/>
    <rect id="Rectangle_537" data-name="Rectangle 537" width="0.429" height="3.964" transform="translate(21.053 71.664)" fill="#f2f2f2"/>
    <rect id="Rectangle_538" data-name="Rectangle 538" width="0.429" height="3.964" transform="translate(34.012 71.664)" fill="#f2f2f2"/>
    <rect id="Rectangle_539" data-name="Rectangle 539" width="30" height="0.429" transform="translate(23.31 12.195)" fill="#f2f2f2"/>
    <rect id="Rectangle_540" data-name="Rectangle 540" width="0.429" height="3.964" transform="translate(44.691 12.516)" fill="#f2f2f2"/>
    <rect id="Rectangle_541" data-name="Rectangle 541" width="0.429" height="3.964" transform="translate(31.663 12.516)" fill="#f2f2f2"/>
    <rect id="Rectangle_542" data-name="Rectangle 542" width="30" height="0.429" transform="translate(53.394 54.336)" fill="#f2f2f2"/>
    <rect id="Rectangle_543" data-name="Rectangle 543" width="0.429" height="3.964" transform="translate(74.806 54.655)" fill="#f2f2f2"/>
    <rect id="Rectangle_544" data-name="Rectangle 544" width="0.429" height="3.964" transform="translate(61.778 54.655)" fill="#f2f2f2"/>
    <rect id="Rectangle_545" data-name="Rectangle 545" width="30" height="0.429" transform="translate(2.625 54.122)" fill="#f2f2f2"/>
    <rect id="Rectangle_546" data-name="Rectangle 546" width="0.429" height="3.964" transform="translate(24.053 54.441)" fill="#f2f2f2"/>
    <rect id="Rectangle_547" data-name="Rectangle 547" width="0.429" height="3.964" transform="translate(10.982 54.441)" fill="#f2f2f2"/>
    <rect id="Rectangle_548" data-name="Rectangle 548" width="30" height="0.429" transform="translate(38.458 32.766)" fill="#f2f2f2"/>
    <rect id="Rectangle_549" data-name="Rectangle 549" width="0.429" height="3.964" transform="translate(46.614 28.909)" fill="#f2f2f2"/>
    <rect id="Rectangle_550" data-name="Rectangle 550" width="0.429" height="3.964" transform="translate(59.642 28.909)" fill="#f2f2f2"/>
  </g>
</svg>
